<mxfile host="app.diagrams.net" agent="Mozilla/5.0 (Windows NT 10.0; Win64; x64) AppleWebKit/537.36 (KHTML, like Gecko) Chrome/126.0.0.0 Safari/537.36" version="24.7.6">
  <diagram name="Page-1" id="zYOYBJ3NEUo-mfjruXfO">
    <mxGraphModel dx="1209" dy="705" grid="1" gridSize="10" guides="1" tooltips="1" connect="1" arrows="1" fold="1" page="1" pageScale="1" pageWidth="850" pageHeight="1100" math="0" shadow="0">
      <root>
        <mxCell id="0" />
        <mxCell id="1" parent="0" />
        <mxCell id="R1-8mBZS-rYj7z3DnGg0-2" value="MHA Network" style="points=[[0,0],[0.25,0],[0.5,0],[0.75,0],[1,0],[1,0.25],[1,0.5],[1,0.75],[1,1],[0.75,1],[0.5,1],[0.25,1],[0,1],[0,0.75],[0,0.5],[0,0.25]];outlineConnect=0;gradientColor=none;html=1;whiteSpace=wrap;fontSize=12;fontStyle=0;container=1;pointerEvents=0;collapsible=0;recursiveResize=0;shape=mxgraph.aws4.group;grIcon=mxgraph.aws4.group_corporate_data_center;strokeColor=#7D8998;fillColor=none;verticalAlign=top;align=left;spacingLeft=30;fontColor=#5A6C86;dashed=0;" parent="1" vertex="1">
          <mxGeometry x="40" y="40" width="160" height="340" as="geometry" />
        </mxCell>
        <mxCell id="R1-8mBZS-rYj7z3DnGg0-6" value="SPF OA Network" style="fillColor=none;strokeColor=#5A6C86;dashed=1;verticalAlign=top;fontStyle=0;fontColor=#5A6C86;whiteSpace=wrap;html=1;" parent="R1-8mBZS-rYj7z3DnGg0-2" vertex="1">
          <mxGeometry x="15" y="40" width="130" height="190" as="geometry" />
        </mxCell>
        <mxCell id="R1-8mBZS-rYj7z3DnGg0-10" style="edgeStyle=orthogonalEdgeStyle;rounded=0;orthogonalLoop=1;jettySize=auto;html=1;exitX=0.5;exitY=1;exitDx=0;exitDy=25;exitPerimeter=0;startArrow=classic;startFill=1;" parent="R1-8mBZS-rYj7z3DnGg0-2" source="R1-8mBZS-rYj7z3DnGg0-7" target="R1-8mBZS-rYj7z3DnGg0-8" edge="1">
          <mxGeometry relative="1" as="geometry" />
        </mxCell>
        <mxCell id="R1-8mBZS-rYj7z3DnGg0-7" value="SONAR" style="image;aspect=fixed;html=1;points=[[0.5,1,0,0,25]];align=center;fontSize=12;image=img/lib/azure2/app_services/App_Service_Domains.svg;" parent="R1-8mBZS-rYj7z3DnGg0-2" vertex="1">
          <mxGeometry x="60" y="70" width="37.09" height="30" as="geometry" />
        </mxCell>
        <mxCell id="R1-8mBZS-rYj7z3DnGg0-8" value="SPF CSFTP2" style="sketch=0;points=[[0,0,0],[0.25,0,0],[0.5,0,0],[0.75,0,0],[1,0,0],[0,1,0],[0.25,1,0],[0.5,1,0],[0.75,1,0],[1,1,0],[0,0.25,0],[0,0.5,0],[0,0.75,0],[1,0.25,0],[1,0.5,0],[1,0.75,0]];outlineConnect=0;fontColor=#232F3E;fillColor=#01A88D;strokeColor=#ffffff;dashed=0;verticalLabelPosition=bottom;verticalAlign=top;align=center;html=1;fontSize=12;fontStyle=0;aspect=fixed;shape=mxgraph.aws4.resourceIcon;resIcon=mxgraph.aws4.transfer_for_sftp;" parent="R1-8mBZS-rYj7z3DnGg0-2" vertex="1">
          <mxGeometry x="58.55000000000001" y="160" width="40" height="40" as="geometry" />
        </mxCell>
        <mxCell id="R1-8mBZS-rYj7z3DnGg0-13" value="MHA ASTRA&lt;div&gt;SFTP SERVER&lt;/div&gt;" style="sketch=0;points=[[0,0,0],[0.25,0,0],[0.5,0,0],[0.75,0,0],[1,0,0],[0,1,0],[0.25,1,0],[0.5,1,0],[0.75,1,0],[1,1,0],[0,0.25,0],[0,0.5,0],[0,0.75,0],[1,0.25,0],[1,0.5,0],[1,0.75,0]];outlineConnect=0;fontColor=#232F3E;fillColor=#01A88D;strokeColor=#ffffff;dashed=0;verticalLabelPosition=bottom;verticalAlign=top;align=center;html=1;fontSize=12;fontStyle=0;aspect=fixed;shape=mxgraph.aws4.resourceIcon;resIcon=mxgraph.aws4.transfer_for_sftp;" parent="R1-8mBZS-rYj7z3DnGg0-2" vertex="1">
          <mxGeometry x="60.000000000000014" y="260" width="40" height="40" as="geometry" />
        </mxCell>
        <mxCell id="R1-8mBZS-rYj7z3DnGg0-14" style="edgeStyle=orthogonalEdgeStyle;rounded=0;orthogonalLoop=1;jettySize=auto;html=1;exitX=0.5;exitY=1;exitDx=0;exitDy=0;entryX=0.5;entryY=0;entryDx=0;entryDy=0;entryPerimeter=0;startArrow=classic;startFill=1;" parent="R1-8mBZS-rYj7z3DnGg0-2" source="R1-8mBZS-rYj7z3DnGg0-6" target="R1-8mBZS-rYj7z3DnGg0-13" edge="1">
          <mxGeometry relative="1" as="geometry" />
        </mxCell>
      </root>
    </mxGraphModel>
  </diagram>
</mxfile>
